<svg width="100" height="100" viewBox="0 0 100 100" fill="none" xmlns="http://www.w3.org/2000/svg">
<g clip-path="url(#clip0_368_2589)">
<path d="M16.6666 43.75C13.2083 43.75 10.4166 46.5417 10.4166 50C10.4166 53.4583 13.2083 56.25 16.6666 56.25C20.125 56.25 22.9166 53.4583 22.9166 50C22.9166 46.5417 20.125 43.75 16.6666 43.75ZM16.6666 18.75C13.2083 18.75 10.4166 21.5417 10.4166 25C10.4166 28.4583 13.2083 31.25 16.6666 31.25C20.125 31.25 22.9166 28.4583 22.9166 25C22.9166 21.5417 20.125 18.75 16.6666 18.75ZM16.6666 68.75C13.2083 68.75 10.4166 71.5833 10.4166 75C10.4166 78.4167 13.25 81.25 16.6666 81.25C20.0833 81.25 22.9166 78.4167 22.9166 75C22.9166 71.5833 20.125 68.75 16.6666 68.75ZM29.1666 79.1667H87.5V70.8333H29.1666V79.1667ZM29.1666 54.1667H87.5V45.8333H29.1666V54.1667ZM29.1666 20.8333V29.1667H87.5V20.8333H29.1666Z" fill="white"/>
</g>
<defs>
<clipPath id="clip0_368_2589">
<rect width="100" height="100" fill="white"/>
</clipPath>
</defs>
</svg>
